<mxfile host="app.diagrams.net" modified="2021-05-27T04:53:46.567Z" agent="5.0 (Windows NT 10.0; Win64; x64) AppleWebKit/537.36 (KHTML, like Gecko) Chrome/90.0.4430.212 Safari/537.36" etag="wctLtU9TdSI3McUD2kkr" version="14.7.2" type="github">
  <diagram id="e1svnjk2He2mOXQz4SfX" name="Page-1">
    <mxGraphModel dx="1376" dy="502" grid="0" gridSize="10" guides="1" tooltips="1" connect="1" arrows="1" fold="1" page="0" pageScale="1" pageWidth="827" pageHeight="1169" math="0" shadow="0">
      <root>
        <mxCell id="0" />
        <mxCell id="1" parent="0" />
        <mxCell id="3rxL_w6OVFpMtlmRvImV-89" value="" style="rounded=1;whiteSpace=wrap;html=1;dashed=1;fontSize=12;strokeColor=#990099;" parent="1" vertex="1">
          <mxGeometry x="180" y="325" width="240" height="135" as="geometry" />
        </mxCell>
        <mxCell id="3rxL_w6OVFpMtlmRvImV-88" value="" style="rounded=1;whiteSpace=wrap;html=1;dashed=1;fontSize=12;strokeColor=#990099;" parent="1" vertex="1">
          <mxGeometry x="180" y="180" width="240" height="135" as="geometry" />
        </mxCell>
        <mxCell id="3rxL_w6OVFpMtlmRvImV-87" value="" style="rounded=1;whiteSpace=wrap;html=1;dashed=1;fontSize=12;strokeColor=#990099;" parent="1" vertex="1">
          <mxGeometry x="180" y="35" width="240" height="135" as="geometry" />
        </mxCell>
        <mxCell id="3rxL_w6OVFpMtlmRvImV-86" value="" style="rounded=1;whiteSpace=wrap;html=1;fontSize=12;dashed=1;strokeColor=#990099;" parent="1" vertex="1">
          <mxGeometry x="40" y="30" width="130" height="450" as="geometry" />
        </mxCell>
        <mxCell id="3rxL_w6OVFpMtlmRvImV-1" value="Project" style="rounded=0;whiteSpace=wrap;html=1;verticalAlign=middle;horizontal=0;fontSize=17;fillColor=#FFF4C3;" parent="1" vertex="1">
          <mxGeometry x="50" y="40" width="40" height="420" as="geometry" />
        </mxCell>
        <mxCell id="3rxL_w6OVFpMtlmRvImV-3" value="&lt;b&gt;Dev&lt;/b&gt;" style="rounded=0;whiteSpace=wrap;html=1;fontSize=12;horizontal=0;verticalAlign=middle;fillColor=#FFF4C3;" parent="1" vertex="1">
          <mxGeometry x="110" y="40" width="50" height="130" as="geometry" />
        </mxCell>
        <mxCell id="3rxL_w6OVFpMtlmRvImV-7" value="&lt;b&gt;Prod&lt;/b&gt;" style="rounded=0;whiteSpace=wrap;html=1;fontSize=12;horizontal=0;verticalAlign=middle;fillColor=#FFF4C3;" parent="1" vertex="1">
          <mxGeometry x="110" y="330" width="50" height="132" as="geometry" />
        </mxCell>
        <mxCell id="3rxL_w6OVFpMtlmRvImV-8" value="&lt;b&gt;Pre-Prod&lt;/b&gt;" style="rounded=0;whiteSpace=wrap;html=1;fontSize=12;horizontal=0;verticalAlign=middle;fillColor=#FFF4C3;" parent="1" vertex="1">
          <mxGeometry x="110" y="183" width="50" height="130" as="geometry" />
        </mxCell>
        <mxCell id="3rxL_w6OVFpMtlmRvImV-13" value="Service 1" style="rounded=1;whiteSpace=wrap;html=1;fontSize=12;fillColor=#FFB366;" parent="1" vertex="1">
          <mxGeometry x="190" y="60" width="120" height="30" as="geometry" />
        </mxCell>
        <mxCell id="3rxL_w6OVFpMtlmRvImV-14" value="Service 2" style="rounded=1;whiteSpace=wrap;html=1;fontSize=12;fillColor=#FFB366;" parent="1" vertex="1">
          <mxGeometry x="190" y="120" width="120" height="30" as="geometry" />
        </mxCell>
        <mxCell id="3rxL_w6OVFpMtlmRvImV-15" value="Service 1" style="rounded=1;whiteSpace=wrap;html=1;fontSize=12;fillColor=#FFB366;" parent="1" vertex="1">
          <mxGeometry x="190" y="200" width="120" height="30" as="geometry" />
        </mxCell>
        <mxCell id="3rxL_w6OVFpMtlmRvImV-16" value="Service 2" style="rounded=1;whiteSpace=wrap;html=1;fontSize=12;fillColor=#FFB366;" parent="1" vertex="1">
          <mxGeometry x="190" y="260" width="120" height="30" as="geometry" />
        </mxCell>
        <mxCell id="3rxL_w6OVFpMtlmRvImV-17" value="Service 1" style="rounded=1;whiteSpace=wrap;html=1;fontSize=12;fillColor=#FFB366;" parent="1" vertex="1">
          <mxGeometry x="190" y="340" width="120" height="30" as="geometry" />
        </mxCell>
        <mxCell id="3rxL_w6OVFpMtlmRvImV-18" value="Service 2" style="rounded=1;whiteSpace=wrap;html=1;fontSize=12;fillColor=#FFB366;" parent="1" vertex="1">
          <mxGeometry x="190" y="400" width="120" height="30" as="geometry" />
        </mxCell>
        <mxCell id="3rxL_w6OVFpMtlmRvImV-19" value="&lt;b&gt;&lt;font style=&quot;font-size: 10px&quot;&gt;Repo 1&lt;/font&gt;&lt;/b&gt;" style="shape=cylinder3;whiteSpace=wrap;html=1;boundedLbl=1;backgroundOutline=1;size=3.8958892822265625;fontSize=12;fillColor=#FF99FF;" parent="1" vertex="1">
          <mxGeometry x="355" y="50" width="50" height="50" as="geometry" />
        </mxCell>
        <mxCell id="3rxL_w6OVFpMtlmRvImV-22" value="Repo Folder Structure" style="text;html=1;fillColor=none;align=center;verticalAlign=middle;whiteSpace=wrap;rounded=0;fontSize=12;strokeColor=#000000;" parent="1" vertex="1">
          <mxGeometry x="574.5" y="6" width="161" height="20" as="geometry" />
        </mxCell>
        <mxCell id="3rxL_w6OVFpMtlmRvImV-23" value="&lt;font style=&quot;font-size: 10px&quot;&gt;Environment&lt;/font&gt;" style="text;html=1;fillColor=none;align=center;verticalAlign=middle;whiteSpace=wrap;rounded=0;fontSize=12;strokeColor=#000000;" parent="1" vertex="1">
          <mxGeometry x="50" width="120" height="20" as="geometry" />
        </mxCell>
        <mxCell id="3rxL_w6OVFpMtlmRvImV-25" value="&lt;font style=&quot;font-size: 11px&quot;&gt;Service Lines&lt;/font&gt;" style="text;html=1;fillColor=none;align=center;verticalAlign=middle;whiteSpace=wrap;rounded=0;fontSize=12;strokeColor=#000000;" parent="1" vertex="1">
          <mxGeometry x="221" y="3" width="120" height="23" as="geometry" />
        </mxCell>
        <mxCell id="3rxL_w6OVFpMtlmRvImV-26" value="" style="endArrow=none;dashed=1;html=1;fontSize=12;" parent="1" edge="1">
          <mxGeometry width="50" height="50" relative="1" as="geometry">
            <mxPoint x="560" y="440" as="sourcePoint" />
            <mxPoint x="560" y="60" as="targetPoint" />
          </mxGeometry>
        </mxCell>
        <mxCell id="3rxL_w6OVFpMtlmRvImV-27" value="" style="endArrow=none;dashed=1;html=1;dashPattern=1 3;strokeWidth=2;fontSize=12;" parent="1" edge="1">
          <mxGeometry width="50" height="50" relative="1" as="geometry">
            <mxPoint x="680" y="80" as="sourcePoint" />
            <mxPoint x="560" y="80" as="targetPoint" />
          </mxGeometry>
        </mxCell>
        <mxCell id="3rxL_w6OVFpMtlmRvImV-29" value="" style="endArrow=none;dashed=1;html=1;dashPattern=1 3;strokeWidth=2;fontSize=12;" parent="1" edge="1">
          <mxGeometry width="50" height="50" relative="1" as="geometry">
            <mxPoint x="640" y="220" as="sourcePoint" />
            <mxPoint x="560" y="220" as="targetPoint" />
          </mxGeometry>
        </mxCell>
        <mxCell id="3rxL_w6OVFpMtlmRvImV-30" value="&lt;font style=&quot;font-size: 10px&quot;&gt;&lt;b&gt;Templates&lt;/b&gt;&lt;/font&gt;" style="shape=process;whiteSpace=wrap;html=1;backgroundOutline=1;fontSize=12;fillColor=#d5e8d4;strokeColor=#82b366;" parent="1" vertex="1">
          <mxGeometry x="680" y="70" width="90" height="20" as="geometry" />
        </mxCell>
        <mxCell id="3rxL_w6OVFpMtlmRvImV-32" value="&lt;font style=&quot;font-size: 10px&quot;&gt;&lt;b&gt;Config&lt;/b&gt;&lt;/font&gt;" style="shape=process;whiteSpace=wrap;html=1;backgroundOutline=1;fontSize=12;fillColor=#d5e8d4;strokeColor=#82b366;" parent="1" vertex="1">
          <mxGeometry x="640" y="210" width="90" height="20" as="geometry" />
        </mxCell>
        <mxCell id="3rxL_w6OVFpMtlmRvImV-54" value="" style="endArrow=none;dashed=1;html=1;dashPattern=1 3;strokeWidth=2;fontSize=12;" parent="1" edge="1">
          <mxGeometry width="50" height="50" relative="1" as="geometry">
            <mxPoint x="610" y="320" as="sourcePoint" />
            <mxPoint x="560" y="320" as="targetPoint" />
          </mxGeometry>
        </mxCell>
        <mxCell id="3rxL_w6OVFpMtlmRvImV-55" value="&lt;span style=&quot;font-size: 10px&quot;&gt;&lt;b&gt;bin&lt;/b&gt;&lt;/span&gt;" style="shape=process;whiteSpace=wrap;html=1;backgroundOutline=1;fontSize=12;fillColor=#d5e8d4;strokeColor=#82b366;" parent="1" vertex="1">
          <mxGeometry x="610" y="310" width="90" height="20" as="geometry" />
        </mxCell>
        <mxCell id="3rxL_w6OVFpMtlmRvImV-57" value="&lt;font style=&quot;font-size: 10px&quot;&gt;&lt;b&gt;Dashboards&lt;/b&gt;&lt;/font&gt;" style="shape=process;whiteSpace=wrap;html=1;backgroundOutline=1;fontSize=12;fillColor=#d5e8d4;strokeColor=#82b366;" parent="1" vertex="1">
          <mxGeometry x="720" y="120" width="90" height="20" as="geometry" />
        </mxCell>
        <mxCell id="3rxL_w6OVFpMtlmRvImV-58" value="&lt;font style=&quot;font-size: 10px&quot;&gt;&lt;b&gt;Alerts&lt;/b&gt;&lt;/font&gt;" style="shape=process;whiteSpace=wrap;html=1;backgroundOutline=1;fontSize=12;fillColor=#d5e8d4;strokeColor=#82b366;" parent="1" vertex="1">
          <mxGeometry x="720" y="150" width="90" height="20" as="geometry" />
        </mxCell>
        <mxCell id="3rxL_w6OVFpMtlmRvImV-59" value="" style="endArrow=none;dashed=1;html=1;fontSize=12;entryX=0;entryY=0.5;entryDx=0;entryDy=0;" parent="1" target="3rxL_w6OVFpMtlmRvImV-57" edge="1">
          <mxGeometry width="50" height="50" relative="1" as="geometry">
            <mxPoint x="700" y="130" as="sourcePoint" />
            <mxPoint x="590" y="210" as="targetPoint" />
          </mxGeometry>
        </mxCell>
        <mxCell id="3rxL_w6OVFpMtlmRvImV-60" value="" style="endArrow=none;dashed=1;html=1;fontSize=12;entryX=0;entryY=0.5;entryDx=0;entryDy=0;" parent="1" edge="1">
          <mxGeometry width="50" height="50" relative="1" as="geometry">
            <mxPoint x="700" y="160" as="sourcePoint" />
            <mxPoint x="720" y="160" as="targetPoint" />
          </mxGeometry>
        </mxCell>
        <mxCell id="3rxL_w6OVFpMtlmRvImV-61" value="" style="endArrow=none;dashed=1;html=1;fontSize=12;" parent="1" edge="1">
          <mxGeometry width="50" height="50" relative="1" as="geometry">
            <mxPoint x="700" y="160" as="sourcePoint" />
            <mxPoint x="700" y="90" as="targetPoint" />
          </mxGeometry>
        </mxCell>
        <mxCell id="3rxL_w6OVFpMtlmRvImV-63" value="" style="endArrow=none;dashed=1;html=1;fontSize=12;" parent="1" edge="1">
          <mxGeometry width="50" height="50" relative="1" as="geometry">
            <mxPoint x="680" y="270" as="sourcePoint" />
            <mxPoint x="680" y="230" as="targetPoint" />
          </mxGeometry>
        </mxCell>
        <mxCell id="3rxL_w6OVFpMtlmRvImV-64" value="" style="endArrow=none;dashed=1;html=1;fontSize=12;" parent="1" edge="1">
          <mxGeometry width="50" height="50" relative="1" as="geometry">
            <mxPoint x="680" y="270" as="sourcePoint" />
            <mxPoint x="740" y="270" as="targetPoint" />
          </mxGeometry>
        </mxCell>
        <mxCell id="3rxL_w6OVFpMtlmRvImV-65" value="&lt;b&gt;YAML Files&lt;/b&gt;" style="text;html=1;strokeColor=none;fillColor=none;align=center;verticalAlign=middle;whiteSpace=wrap;rounded=0;fontSize=12;" parent="1" vertex="1">
          <mxGeometry x="710" y="260" width="130" height="20" as="geometry" />
        </mxCell>
        <mxCell id="3rxL_w6OVFpMtlmRvImV-66" value="" style="endArrow=none;dashed=1;html=1;fontSize=12;" parent="1" edge="1">
          <mxGeometry width="50" height="50" relative="1" as="geometry">
            <mxPoint x="652" y="369" as="sourcePoint" />
            <mxPoint x="652" y="329" as="targetPoint" />
          </mxGeometry>
        </mxCell>
        <mxCell id="3rxL_w6OVFpMtlmRvImV-67" value="" style="endArrow=none;dashed=1;html=1;fontSize=12;" parent="1" edge="1">
          <mxGeometry width="50" height="50" relative="1" as="geometry">
            <mxPoint x="652" y="369" as="sourcePoint" />
            <mxPoint x="712" y="369" as="targetPoint" />
          </mxGeometry>
        </mxCell>
        <mxCell id="3rxL_w6OVFpMtlmRvImV-68" value="&lt;b&gt;source code (.sh ..etc)&lt;/b&gt;" style="text;html=1;strokeColor=none;fillColor=none;align=center;verticalAlign=middle;whiteSpace=wrap;rounded=0;fontSize=12;" parent="1" vertex="1">
          <mxGeometry x="697" y="358" width="130" height="20" as="geometry" />
        </mxCell>
        <mxCell id="3rxL_w6OVFpMtlmRvImV-69" value="" style="endArrow=none;dashed=1;html=1;dashPattern=1 3;strokeWidth=2;fontSize=12;" parent="1" edge="1">
          <mxGeometry width="50" height="50" relative="1" as="geometry">
            <mxPoint x="580" y="440" as="sourcePoint" />
            <mxPoint x="560" y="440" as="targetPoint" />
          </mxGeometry>
        </mxCell>
        <mxCell id="3rxL_w6OVFpMtlmRvImV-70" value="&lt;span style=&quot;font-size: 10px&quot;&gt;&lt;b&gt;Values&lt;/b&gt;&lt;/span&gt;" style="shape=process;whiteSpace=wrap;html=1;backgroundOutline=1;fontSize=12;fillColor=#d5e8d4;strokeColor=#82b366;" parent="1" vertex="1">
          <mxGeometry x="580" y="430" width="90" height="20" as="geometry" />
        </mxCell>
        <mxCell id="3rxL_w6OVFpMtlmRvImV-71" value="" style="endArrow=none;dashed=1;html=1;fontSize=12;entryX=0.5;entryY=1;entryDx=0;entryDy=0;" parent="1" target="3rxL_w6OVFpMtlmRvImV-70" edge="1">
          <mxGeometry width="50" height="50" relative="1" as="geometry">
            <mxPoint x="625" y="480" as="sourcePoint" />
            <mxPoint x="631" y="460" as="targetPoint" />
          </mxGeometry>
        </mxCell>
        <mxCell id="3rxL_w6OVFpMtlmRvImV-72" value="" style="endArrow=none;dashed=1;html=1;fontSize=12;" parent="1" edge="1">
          <mxGeometry width="50" height="50" relative="1" as="geometry">
            <mxPoint x="624" y="480" as="sourcePoint" />
            <mxPoint x="684" y="480" as="targetPoint" />
          </mxGeometry>
        </mxCell>
        <mxCell id="3rxL_w6OVFpMtlmRvImV-73" value="&lt;b&gt;Parameter Files (Yaml,Json,txt..etc)&lt;/b&gt;" style="text;html=1;strokeColor=none;fillColor=none;align=center;verticalAlign=middle;whiteSpace=wrap;rounded=0;fontSize=12;" parent="1" vertex="1">
          <mxGeometry x="650" y="470" width="200" height="20" as="geometry" />
        </mxCell>
        <mxCell id="3rxL_w6OVFpMtlmRvImV-74" value="" style="html=1;shadow=0;dashed=0;align=center;verticalAlign=middle;shape=mxgraph.arrows2.arrow;dy=0.6;dx=40;notch=0;fontSize=12;" parent="1" vertex="1">
          <mxGeometry x="440" y="210" width="100" height="50" as="geometry" />
        </mxCell>
        <mxCell id="3rxL_w6OVFpMtlmRvImV-75" value="" style="html=1;shadow=0;dashed=0;align=center;verticalAlign=middle;shape=mxgraph.arrows2.arrow;dy=0.6;dx=40;notch=0;fontSize=12;" parent="1" vertex="1">
          <mxGeometry x="440" y="70" width="100" height="50" as="geometry" />
        </mxCell>
        <mxCell id="3rxL_w6OVFpMtlmRvImV-76" value="" style="html=1;shadow=0;dashed=0;align=center;verticalAlign=middle;shape=mxgraph.arrows2.arrow;dy=0.6;dx=40;notch=0;fontSize=12;" parent="1" vertex="1">
          <mxGeometry x="435" y="343" width="100" height="50" as="geometry" />
        </mxCell>
        <mxCell id="3rxL_w6OVFpMtlmRvImV-77" value="" style="shape=umlActor;verticalLabelPosition=bottom;verticalAlign=top;html=1;outlineConnect=0;fontSize=12;" parent="1" vertex="1">
          <mxGeometry x="290" y="40" width="10" height="20" as="geometry" />
        </mxCell>
        <mxCell id="3rxL_w6OVFpMtlmRvImV-80" value="" style="shape=umlActor;verticalLabelPosition=bottom;verticalAlign=top;html=1;outlineConnect=0;fontSize=12;" parent="1" vertex="1">
          <mxGeometry x="290" y="100" width="10" height="20" as="geometry" />
        </mxCell>
        <mxCell id="3rxL_w6OVFpMtlmRvImV-81" value="" style="shape=umlActor;verticalLabelPosition=bottom;verticalAlign=top;html=1;outlineConnect=0;fontSize=12;" parent="1" vertex="1">
          <mxGeometry x="290" y="180" width="10" height="20" as="geometry" />
        </mxCell>
        <mxCell id="3rxL_w6OVFpMtlmRvImV-82" value="" style="shape=umlActor;verticalLabelPosition=bottom;verticalAlign=top;html=1;outlineConnect=0;fontSize=12;" parent="1" vertex="1">
          <mxGeometry x="290" y="242" width="10" height="20" as="geometry" />
        </mxCell>
        <mxCell id="3rxL_w6OVFpMtlmRvImV-83" value="" style="shape=umlActor;verticalLabelPosition=bottom;verticalAlign=top;html=1;outlineConnect=0;fontSize=12;" parent="1" vertex="1">
          <mxGeometry x="290" y="320" width="10" height="20" as="geometry" />
        </mxCell>
        <mxCell id="3rxL_w6OVFpMtlmRvImV-84" value="" style="shape=umlActor;verticalLabelPosition=bottom;verticalAlign=top;html=1;outlineConnect=0;fontSize=12;" parent="1" vertex="1">
          <mxGeometry x="290" y="380" width="10" height="20" as="geometry" />
        </mxCell>
        <mxCell id="3rxL_w6OVFpMtlmRvImV-90" value="&lt;b&gt;&lt;font style=&quot;font-size: 10px&quot;&gt;Repo 2&lt;/font&gt;&lt;/b&gt;" style="shape=cylinder3;whiteSpace=wrap;html=1;boundedLbl=1;backgroundOutline=1;size=3.8958892822265625;fontSize=12;fillColor=#FF99FF;" parent="1" vertex="1">
          <mxGeometry x="355" y="105" width="50" height="50" as="geometry" />
        </mxCell>
        <mxCell id="3rxL_w6OVFpMtlmRvImV-91" value="&lt;b&gt;&lt;font style=&quot;font-size: 10px&quot;&gt;Repo 1&lt;/font&gt;&lt;/b&gt;" style="shape=cylinder3;whiteSpace=wrap;html=1;boundedLbl=1;backgroundOutline=1;size=3.8958892822265625;fontSize=12;fillColor=#FF99FF;" parent="1" vertex="1">
          <mxGeometry x="350" y="195" width="50" height="50" as="geometry" />
        </mxCell>
        <mxCell id="3rxL_w6OVFpMtlmRvImV-92" value="&lt;b&gt;&lt;font style=&quot;font-size: 10px&quot;&gt;Repo 2&lt;/font&gt;&lt;/b&gt;" style="shape=cylinder3;whiteSpace=wrap;html=1;boundedLbl=1;backgroundOutline=1;size=3.8958892822265625;fontSize=12;fillColor=#FF99FF;" parent="1" vertex="1">
          <mxGeometry x="350" y="250" width="50" height="50" as="geometry" />
        </mxCell>
        <mxCell id="3rxL_w6OVFpMtlmRvImV-93" value="&lt;b&gt;&lt;font style=&quot;font-size: 10px&quot;&gt;Repo 1&lt;/font&gt;&lt;/b&gt;" style="shape=cylinder3;whiteSpace=wrap;html=1;boundedLbl=1;backgroundOutline=1;size=3.8958892822265625;fontSize=12;fillColor=#FF99FF;" parent="1" vertex="1">
          <mxGeometry x="350" y="337.5" width="50" height="50" as="geometry" />
        </mxCell>
        <mxCell id="3rxL_w6OVFpMtlmRvImV-94" value="&lt;b&gt;&lt;font style=&quot;font-size: 10px&quot;&gt;Repo 2&lt;/font&gt;&lt;/b&gt;" style="shape=cylinder3;whiteSpace=wrap;html=1;boundedLbl=1;backgroundOutline=1;size=3.8958892822265625;fontSize=12;fillColor=#FF99FF;" parent="1" vertex="1">
          <mxGeometry x="350" y="392.5" width="50" height="50" as="geometry" />
        </mxCell>
        <mxCell id="RcTfPBsKg6dC-d5t9H8r-1" value="" style="endArrow=none;dashed=1;html=1;" edge="1" parent="1">
          <mxGeometry width="50" height="50" relative="1" as="geometry">
            <mxPoint x="857" y="178" as="sourcePoint" />
            <mxPoint x="972" y="178" as="targetPoint" />
          </mxGeometry>
        </mxCell>
        <mxCell id="RcTfPBsKg6dC-d5t9H8r-2" value="" style="endArrow=none;dashed=1;html=1;" edge="1" parent="1">
          <mxGeometry width="50" height="50" relative="1" as="geometry">
            <mxPoint x="975" y="290" as="sourcePoint" />
            <mxPoint x="975" y="68" as="targetPoint" />
          </mxGeometry>
        </mxCell>
        <mxCell id="RcTfPBsKg6dC-d5t9H8r-5" value="" style="endArrow=classic;html=1;" edge="1" parent="1">
          <mxGeometry width="50" height="50" relative="1" as="geometry">
            <mxPoint x="976" y="70" as="sourcePoint" />
            <mxPoint x="1071" y="70" as="targetPoint" />
          </mxGeometry>
        </mxCell>
        <mxCell id="RcTfPBsKg6dC-d5t9H8r-6" value="" style="endArrow=classic;html=1;" edge="1" parent="1">
          <mxGeometry width="50" height="50" relative="1" as="geometry">
            <mxPoint x="976" y="292" as="sourcePoint" />
            <mxPoint x="1071" y="292" as="targetPoint" />
          </mxGeometry>
        </mxCell>
        <mxCell id="RcTfPBsKg6dC-d5t9H8r-7" value="Service Pipeline" style="text;html=1;fillColor=none;align=center;verticalAlign=middle;whiteSpace=wrap;rounded=0;fontSize=12;strokeColor=#000000;" vertex="1" parent="1">
          <mxGeometry x="1081" y="60" width="161" height="20" as="geometry" />
        </mxCell>
        <mxCell id="RcTfPBsKg6dC-d5t9H8r-8" value="&lt;ul style=&quot;font-size: 11px&quot;&gt;&lt;li&gt;Monitoring Tasks integrated to same existing Pipeline ?&lt;/li&gt;&lt;li&gt;Add Exceptions/checks or balances so that only particular task is executed ?&lt;/li&gt;&lt;li&gt;How this will be propagated to multiple environments ?&lt;/li&gt;&lt;/ul&gt;" style="text;html=1;strokeColor=none;fillColor=none;align=left;verticalAlign=middle;whiteSpace=wrap;rounded=0;fontSize=12;" vertex="1" parent="1">
          <mxGeometry x="1148" y="109" width="357" height="20" as="geometry" />
        </mxCell>
        <mxCell id="RcTfPBsKg6dC-d5t9H8r-9" value="GITOPS Approach" style="text;html=1;fillColor=none;align=center;verticalAlign=middle;whiteSpace=wrap;rounded=0;fontSize=12;strokeColor=#000000;" vertex="1" parent="1">
          <mxGeometry x="1074" y="283" width="161" height="20" as="geometry" />
        </mxCell>
        <mxCell id="RcTfPBsKg6dC-d5t9H8r-10" value="&lt;ul style=&quot;font-size: 11px&quot;&gt;&lt;li&gt;Operator based Helm Approach for Applications Deployment&lt;/li&gt;&lt;li&gt;Scripting Approach for Grafana SAAS Portal via Grafana API for Dashboards and Alerts&lt;/li&gt;&lt;/ul&gt;" style="text;html=1;strokeColor=none;fillColor=none;align=left;verticalAlign=middle;whiteSpace=wrap;rounded=0;fontSize=12;" vertex="1" parent="1">
          <mxGeometry x="1144" y="327" width="406" height="20" as="geometry" />
        </mxCell>
        <mxCell id="RcTfPBsKg6dC-d5t9H8r-12" value="Execution &lt;br&gt;Strategy" style="text;html=1;strokeColor=none;fillColor=none;align=center;verticalAlign=middle;whiteSpace=wrap;rounded=0;fontSize=12;" vertex="1" parent="1">
          <mxGeometry x="880" y="190" width="130" height="20" as="geometry" />
        </mxCell>
      </root>
    </mxGraphModel>
  </diagram>
</mxfile>
